# xmcd CD database file
#
# Track frame offsets:
#	150
#	14234
#	27738
#	46550
#	64830
#	87704
#	107001
#	124476
#	143967
#	164737
#	183741
#	203561
#	221968
#	236336
#	256964
#	277235
#	295767
#
# Disc length: 4181 seconds
#
# Revision: 0
# Processed by: cddbd v1.5.2PL0 Copyright (c) Steve Scherf et al.
# Submitted via: CDex 1.70beta2
#
DISCID=18105311
DTITLE=Michael Connelly - The Brass Verdict Disc 4
DYEAR=2008
DGENRE=Audio Book
TTITLE0=The Brass Verdict Disc 4-01
TTITLE1=The Brass Verdict Disc 4-02
TTITLE2=The Brass Verdict Disc 4-03
TTITLE3=The Brass Verdict Disc 4-04
TTITLE4=The Brass Verdict Disc 4-05
TTITLE5=The Brass Verdict Disc 4-06
TTITLE6=The Brass Verdict Disc 4-07
TTITLE7=The Brass Verdict Disc 4-08
TTITLE8=The Brass Verdict Disc 4-09
TTITLE9=The Brass Verdict Disc 4-10
TTITLE10=The Brass Verdict Disc 4-11
TTITLE11=The Brass Verdict Disc 4-12
TTITLE12=The Brass Verdict Disc 4-13
TTITLE13=The Brass Verdict Disc 4-14
TTITLE14=The Brass Verdict Disc 4-15
TTITLE15=The Brass Verdict Disc 4-16
TTITLE16=The Brass Verdict Disc 4-17
EXTD=YEAR: 2008
EXTT0=
EXTT1=
EXTT2=
EXTT3=
EXTT4=
EXTT5=
EXTT6=
EXTT7=
EXTT8=
EXTT9=
EXTT10=
EXTT11=
EXTT12=
EXTT13=
EXTT14=
EXTT15=
EXTT16=
PLAYORDER=
